<svg xmlns="http://www.w3.org/2000/svg" viewBox="0 0 49.25 49.25"><g id="Layer_2" data-name="Layer 2"><g id="Layer_1-2" data-name="Layer 1"><path d="M24.62,0A24.63,24.63,0,1,0,49.25,24.62,24.63,24.63,0,0,0,24.62,0ZM37,19.66c0,.27,0,.53,0,.8,0,8.2-6.24,17.66-17.66,17.66a17.56,17.56,0,0,1-9.51-2.79,12,12,0,0,0,1.48.09,12.44,12.44,0,0,0,7.71-2.66,6.21,6.21,0,0,1-5.8-4.31,5.66,5.66,0,0,0,1.17.11,6.28,6.28,0,0,0,1.63-.21,6.21,6.21,0,0,1-5-6.09v-.08A6.13,6.13,0,0,0,13.9,23,6.22,6.22,0,0,1,12,14.67a17.62,17.62,0,0,0,12.8,6.49,6.07,6.07,0,0,1-.17-1.42A6.21,6.21,0,0,1,35.35,15.5,12.54,12.54,0,0,0,39.29,14a6.18,6.18,0,0,1-2.73,3.43,12.57,12.57,0,0,0,3.57-1A12.62,12.62,0,0,1,37,19.66Z" style="fill:#231f20"/></g></g></svg>