<svg width="158" height="40" viewBox="0 0 158 40" fill="none" xmlns="http://www.w3.org/2000/svg">
<path d="M0.835938 39V1.1875H6.59375V34.1016H13.877V39H0.835938ZM33.6641 29.2891C33.6641 32.7695 33.0052 35.3333 31.6875 36.9805C30.3698 38.6133 28.25 39.4297 25.3281 39.4297C22.4206 39.4297 20.3008 38.6061 18.9688 36.959C17.651 35.3118 16.9922 32.7552 16.9922 29.2891V1.16602H22.75V29.1816C22.75 31.1725 22.8431 32.3828 23.0293 32.8125C23.2155 33.2422 23.4375 33.6361 23.6953 33.9941C23.9674 34.3379 24.5189 34.5098 25.3496 34.5098C26.1803 34.5098 26.7747 34.2663 27.1328 33.7793C27.4909 33.2923 27.7057 32.6908 27.7773 31.9746C27.8633 31.2441 27.9062 30.3132 27.9062 29.1816V1.16602H33.6641V29.2891ZM39.1211 39V1.1875H46.2754L51.6465 28.8164L56.6953 1.1875H63.8926V39H58.7578V24.9062L58.9727 11.9727L53.8809 38.8281H49.3047L43.998 11.9727L44.2129 24.9062V39H39.1211ZM85.7637 10.8984C85.7637 14.9661 84.6608 17.4655 82.4551 18.3965C85.1478 19.2988 86.4941 22.2708 86.4941 27.3125V28.2793C86.4655 32.0749 85.7995 34.8105 84.4961 36.4863C83.207 38.1621 81.0944 39 78.1582 39H69.8008V1.1875H77.9863C80.8079 1.1875 82.806 1.84635 83.9805 3.16406C85.1549 4.46745 85.7493 6.65885 85.7637 9.73828V10.8984ZM75.5586 34.5312H77.5996C78.7454 34.5312 79.5475 34.1374 80.0059 33.3496C80.4642 32.5618 80.6934 31.151 80.6934 29.1172V26.0664C80.6934 24.1471 80.5072 22.7936 80.1348 22.0059C79.7624 21.2038 79.0462 20.8027 77.9863 20.8027H75.5586V34.5312ZM75.5586 16.4844H77.6855C78.6738 16.4844 79.3184 16.1693 79.6191 15.5391C79.9342 14.9089 80.0918 13.6126 80.0918 11.6504V9.37305C80.0775 7.91211 79.877 6.93815 79.4902 6.45117C79.1035 5.94987 78.4375 5.69922 77.4922 5.69922H75.5586V16.4844ZM94.6797 39V23.8965L88.3418 1.1875H93.8418L97.5801 15.3242H97.666L100.996 1.1875H106.475L100.438 23.8965V39H94.6797ZM111.438 39V6.17188H107.012V1.1875H121.428V6.17188H117.174V39H111.438ZM124.629 39V1.1875H137.305V6.15039H130.387V17.1504H136.961V22.0059H130.387V34.0371H137.562V39H124.629ZM141.408 28.3652V24.9922H146.865V28.7949C146.865 30.9004 147.044 32.3828 147.402 33.2422C147.76 34.0872 148.434 34.5098 149.422 34.5098C150.41 34.5098 151.062 34.1589 151.377 33.457C151.706 32.7552 151.871 31.6094 151.871 30.0195C151.871 28.4297 151.585 27.0475 151.012 25.873C150.439 24.6842 149.529 23.4453 148.283 22.1562L145.49 19.2773C144.187 17.9167 143.17 16.5059 142.439 15.0449C141.723 13.584 141.365 11.8939 141.365 9.97461C141.365 6.85221 141.967 4.5319 143.17 3.01367C144.373 1.49544 146.443 0.736328 149.379 0.736328C152.315 0.736328 154.299 1.62435 155.33 3.40039C156.376 5.16211 156.898 7.74023 156.898 11.1348V13.4766H151.592V10.7695C151.592 8.9362 151.434 7.62565 151.119 6.83789C150.804 6.03581 150.195 5.63477 149.293 5.63477C148.405 5.63477 147.76 5.93555 147.359 6.53711C146.973 7.13867 146.779 8.04102 146.779 9.24414C146.779 10.4473 146.98 11.4069 147.381 12.123C147.782 12.8392 148.505 13.7559 149.551 14.873L152.666 18.2461C154.227 19.9362 155.402 21.6478 156.189 23.3809C156.992 25.1139 157.393 27.0046 157.393 29.0527C157.393 32.5905 156.798 35.2044 155.609 36.8945C154.421 38.5846 152.337 39.4297 149.357 39.4297C146.393 39.4297 144.323 38.4915 143.148 36.6152C141.988 34.7246 141.408 31.9746 141.408 28.3652Z" fill="url(#paint0_linear)"/>
<defs>
<linearGradient id="paint0_linear" x1="-2" y1="20.5" x2="159" y2="20.5" gradientUnits="userSpaceOnUse">
<stop stop-color="#9400D3"/>
<stop offset="1" stop-color="#FF0000"/>
</linearGradient>
</defs>
</svg>
