<svg width="219" height="50" viewBox="0 0 219 50" fill="none" xmlns="http://www.w3.org/2000/svg">
<path d="M0 32V0.139998H1.62V32H0ZM3.24 32V0.139998H8.1V32H3.24ZM9.72 32V0.139998H11.34V32H9.72ZM12.96 32V0.139998H14.58V32H12.96ZM21.06 32V0.139998H25.92V32H21.06ZM10.098 36.698H11.718V36.86C11.646 36.932 11.592 37.022 11.556 37.13C11.556 37.202 11.556 37.364 11.556 37.616V48.038H17.55V49.226H10.098V36.698ZM27.5273 32V0.139998H32.3873V32H27.5273ZM38.8673 32V0.139998H40.4873V32H38.8673ZM42.1073 32V0.139998H43.7273V32H42.1073ZM45.3473 32V0.139998H46.9673V32H45.3473ZM48.5873 32V0.139998H53.4473V32H48.5873ZM41.2973 49.442C40.0013 49.442 39.0113 49.046 38.3273 48.254C37.6433 47.462 37.3013 46.346 37.3013 44.906V36.698H38.8673V36.86C38.7593 36.932 38.7053 37.022 38.7053 37.13C38.6693 37.202 38.6513 37.364 38.6513 37.616V44.906C38.6513 45.986 38.8673 46.814 39.2993 47.39C39.6953 47.966 40.3793 48.254 41.3513 48.254C42.2873 48.254 42.9713 47.966 43.4033 47.39C43.8353 46.814 44.0513 45.968 44.0513 44.852V36.698H45.4013V44.852C45.4013 46.4 45.0413 47.552 44.3213 48.308C43.6013 49.064 42.5933 49.442 41.2973 49.442ZM55.0547 32V0.139998H59.9147V32H55.0547ZM61.5347 32V0.139998H66.3947V32H61.5347ZM68.0147 32V0.139998H69.6347V32H68.0147ZM71.2547 32V0.139998H72.8747V32H71.2547ZM79.3547 32V0.139998H80.9747V32H79.3547ZM64.6127 36.698H65.7467L68.8247 42.854L71.9567 36.698H73.0367V49.226H71.6867V39.776L68.9867 44.852H68.4467L65.9087 39.83V49.226H64.6127V36.698ZM82.582 32V0.139998H84.202V32H82.582ZM85.822 32V0.139998H90.682V32H85.822ZM92.302 32V0.139998H93.922V32H92.302ZM100.402 32V0.139998H102.022V32H100.402ZM103.642 32V0.139998H108.502V32H103.642ZM92.302 36.698H95.866C97.234 36.698 98.26 36.968 98.944 37.508C99.664 38.048 100.024 38.804 100.024 39.776C100.024 40.388 99.862 40.946 99.538 41.45C99.178 41.954 98.71 42.314 98.134 42.53C98.854 42.782 99.43 43.196 99.862 43.772C100.294 44.384 100.51 45.032 100.51 45.716C100.51 46.796 100.114 47.66 99.322 48.308C98.566 48.92 97.396 49.226 95.812 49.226H92.302V36.698ZM95.65 41.882C97.63 41.882 98.62 41.216 98.62 39.884C98.62 39.308 98.386 38.84 97.918 38.48C97.486 38.084 96.802 37.886 95.866 37.886H93.652V41.882H95.65ZM96.082 47.984C98.026 47.984 98.998 47.192 98.998 45.608C98.998 43.916 97.9 43.07 95.704 43.07H93.652V47.984H96.082ZM110.109 32V0.139998H114.969V32H110.109ZM121.449 32V0.139998H123.069V32H121.449ZM124.689 32V0.139998H129.549V32H124.689ZM131.169 32V0.139998H132.789V32H131.169ZM134.409 32V0.139998H136.029V32H134.409ZM123.285 44.312L119.397 36.698H121.017L124.095 42.8L126.849 36.698H128.361L124.797 44.312V49.226H123.285V44.312ZM137.637 32V0.139998H139.257V32H137.637ZM140.877 32V0.139998H142.497V32H140.877ZM144.117 32V0.139998H148.977V32H144.117ZM150.597 32V0.139998H155.457V32H150.597ZM161.937 32V0.139998H163.557V32H161.937ZM150.543 37.94H147.033V36.698H155.673V37.94H152.001V49.226H150.543V37.94ZM165.164 32V0.139998H170.024V32H165.164ZM171.644 32V0.139998H173.264V32H171.644ZM174.884 32V0.139998H179.744V32H174.884ZM186.224 32V0.139998H187.844V32H186.224ZM189.464 32V0.139998H191.084V32H189.464ZM175.1 36.698H182.768V37.94H176.396V42.044H181.688V43.34H176.396V47.984H182.714V49.226H175.1V36.698ZM192.691 32V0.139998H194.311V32H192.691ZM195.931 32V0.139998H200.791V32H195.931ZM202.411 32V0.139998H204.031V32H202.411ZM205.651 32V0.139998H210.511V32H205.651ZM216.991 32V0.139998H218.611V32H216.991ZM206.407 49.442C204.787 49.442 203.473 48.902 202.465 47.822L203.221 46.58L203.275 46.418L203.437 46.472C203.437 46.508 203.455 46.58 203.491 46.688C203.491 46.76 203.527 46.85 203.599 46.958C203.635 47.03 203.707 47.102 203.815 47.174C204.571 47.822 205.507 48.146 206.623 48.146C207.343 48.146 207.955 47.948 208.459 47.552C208.963 47.12 209.215 46.616 209.215 46.04C209.215 45.644 209.125 45.302 208.945 45.014C208.801 44.762 208.531 44.51 208.135 44.258C207.739 44.006 207.127 43.7 206.299 43.34C205.075 42.872 204.193 42.332 203.653 41.72C203.149 41.108 202.897 40.424 202.897 39.668C202.897 38.732 203.239 37.976 203.923 37.4C204.607 36.824 205.525 36.536 206.677 36.536C207.361 36.536 208.009 36.68 208.621 36.968C209.197 37.256 209.719 37.634 210.187 38.102L209.269 39.344L209.161 39.236C209.161 39.2 209.143 39.146 209.107 39.074C209.107 38.966 209.071 38.876 208.999 38.804C208.963 38.696 208.891 38.606 208.783 38.534C208.495 38.246 208.153 38.03 207.757 37.886C207.397 37.778 206.965 37.724 206.461 37.724C205.813 37.724 205.309 37.904 204.949 38.264C204.553 38.624 204.355 39.056 204.355 39.56C204.355 39.956 204.427 40.298 204.571 40.586C204.751 40.874 205.057 41.144 205.489 41.396C205.921 41.684 206.569 41.99 207.433 42.314C208.621 42.818 209.449 43.322 209.917 43.826C210.349 44.366 210.565 45.032 210.565 45.824C210.565 46.436 210.421 47.012 210.133 47.552C209.809 48.092 209.341 48.542 208.729 48.902C208.081 49.262 207.307 49.442 206.407 49.442Z" fill="url(#paint0_linear)"/>
<defs>
<linearGradient id="paint0_linear" x1="-1.23493e-06" y1="27" x2="221" y2="27" gradientUnits="userSpaceOnUse">
<stop stop-color="#9400D3"/>
<stop offset="1" stop-color="#FF0000"/>
</linearGradient>
</defs>
</svg>
